<?xml version="1.0" standalone="no"?>
<!DOCTYPE svg PUBLIC "-//W3C//DTD SVG 20010904//EN"
 "http://www.w3.org/TR/2001/REC-SVG-20010904/DTD/svg10.dtd">
<svg version="1.0" xmlns="http://www.w3.org/2000/svg"
 width="163.000000pt" height="163.000000pt" viewBox="0 0 163.000000 163.000000"
 preserveAspectRatio="xMidYMid meet">
<metadata>
Created by potrace 1.11, written by Peter Selinger 2001-2013
</metadata>
<g transform="translate(0.000000,163.000000) scale(0.100000,-0.100000)"
fill="#000000" stroke="none">
<path d="M215 1544 c-11 -9 -25 -19 -32 -22 -7 -4 -14 -19 -17 -32 -2 -14 -5
-27 -6 -30 -2 -3 -1 -9 0 -15 1 -5 4 -21 6 -34 13 -67 127 -93 177 -40 12 13
23 27 23 31 1 5 3 9 4 11 7 7 6 68 -1 73 -5 3 -7 9 -5 13 3 4 -8 18 -24 31
-35 29 -96 35 -125 14z"/>
<path d="M230 1118 c0 -5 -5 -6 -10 -3 -6 3 -13 -1 -16 -9 -3 -9 -10 -13 -15
-10 -8 4 -10 -1 -9 -21 1 -3 -7 -13 -16 -22 -10 -10 -12 -19 -6 -21 7 -2 7
-14 2 -32 -5 -17 -5 -32 0 -35 5 -3 5 -16 0 -30 -6 -15 -6 -27 0 -30 6 -4 7
-13 1 -23 -6 -11 -6 -24 0 -34 5 -10 5 -26 0 -40 -4 -13 -5 -32 -1 -43 4 -11
5 -24 3 -28 -7 -13 -6 -263 1 -275 3 -6 2 -13 -3 -17 -6 -3 -7 -16 -3 -28 4
-12 6 -38 5 -57 -9 -115 2 -158 45 -186 29 -19 92 -27 92 -12 0 5 4 7 9 4 8
-5 59 38 62 53 8 31 4 829 -4 839 -5 6 -6 12 -2 12 9 0 -42 49 -53 51 -31 7
-82 4 -82 -3z"/>
<path d="M741 1122 c-8 -3 -26 -16 -40 -31 l-26 -25 0 -423 c-1 -263 3 -423 9
-423 5 0 7 -3 3 -6 -9 -10 28 -44 53 -49 13 -3 27 -10 32 -17 6 -10 8 -10 8
-1 0 7 3 12 8 12 25 -4 46 4 71 29 l30 28 1 249 c1 252 5 321 21 331 5 3 7 9
4 14 -3 4 11 24 30 44 101 104 266 84 327 -40 8 -16 14 -40 13 -52 -1 -12 1
-22 4 -22 3 0 6 -112 6 -249 1 -163 -2 -248 -9 -244 -14 9 35 -60 54 -74 8 -7
23 -13 33 -13 9 0 17 -5 17 -11 0 -8 6 -7 17 2 9 8 17 13 17 11 1 -2 14 0 29
3 15 4 26 10 23 13 -3 3 1 10 10 16 20 15 37 86 20 87 -6 0 -2 4 9 9 11 5 14
9 6 9 -8 1 -11 8 -8 21 3 11 1 20 -4 20 -4 0 -6 7 -3 15 11 27 9 185 -1 189
-7 3 -7 5 0 5 17 2 9 292 -10 346 -22 64 -83 158 -96 149 -5 -3 -9 2 -9 11 0
9 -4 13 -10 10 -5 -3 -10 -2 -10 3 0 5 -10 13 -22 17 -13 4 -26 8 -30 10 -20
7 -24 7 -32 6 -4 -1 -14 3 -21 9 -22 18 -196 11 -203 -9 -2 -5 -10 -7 -18 -4
-8 3 -14 1 -14 -5 0 -5 -16 -17 -35 -26 -19 -9 -35 -21 -35 -26 0 -6 -7 -10
-17 -10 -9 0 -14 -3 -10 -6 3 -3 -4 -15 -15 -26 -24 -24 -26 -22 -30 27 -4 71
-79 120 -147 97z"/>
</g>
</svg>
