<?xml version="1.0" encoding="UTF-8"?>
<svg width="24px" height="24px" viewBox="0 0 24 24" version="1.1" xmlns="http://www.w3.org/2000/svg" xmlns:xlink="http://www.w3.org/1999/xlink">
    <!-- Generator: Sketch 52.2 (67145) - http://www.bohemiancoding.com/sketch -->
    <desc>Created with Sketch.</desc>
    <g id="Icons/Cart" stroke="none" stroke-width="1" fill="none" fill-rule="evenodd">
        <g id="Group-8" transform="translate(5.000000, 6.000000)" fill="#E61B5C">
            <path d="M5.37934615,10.6799231 C4.49665385,10.6799231 3.76396154,11.3953077 3.76396154,12.2941538 C3.76396154,13.1953077 4.4805,13.9106923 5.37934615,13.9106923 C6.27934615,13.9106923 6.99473077,13.1953077 6.99473077,12.2941538 C6.99473077,11.3953077 6.27934615,10.6799231 5.37934615,10.6799231" id="Fill-4"></path>
            <path d="M10.6763077,10.6799231 C9.79361538,10.6799231 9.05976923,11.3953077 9.05976923,12.2941538 C9.05976923,13.1953077 9.77630769,13.9106923 10.6763077,13.9106923 C11.5751538,13.9106923 12.2916923,13.1953077 12.2916923,12.2941538 C12.2916923,11.3953077 11.5751538,10.6799231 10.6763077,10.6799231" id="Fill-6"></path>
            <path d="M14.9059615,1.95292308 C14.7732692,1.75215385 14.5898077,1.75215385 14.5228846,1.75215385 L3.21403846,1.75215385 L3.01442308,0.553307692 C2.96480769,0.320230769 2.76519231,0.152923077 2.53096154,0.152923077 L0.482884615,0.152923077 C0.200192308,0.152923077 0.000576923077,0.371 0.000576923077,0.636384615 C0.000576923077,0.904076923 0.216346154,1.11984615 0.482884615,1.11984615 L2.13173077,1.11984615 L3.19788462,7.53176923 C3.19788462,7.58253846 3.21403846,7.63215385 3.23134615,7.66446154 L3.58096154,9.86369231 C3.63057692,10.0967692 3.83019231,10.2456154 4.06442308,10.2456154 L12.8244231,10.2456154 C13.1071154,10.2456154 13.3067308,10.0298462 13.3067308,9.76446154 C13.3067308,9.49676923 13.0909615,9.281 12.8244231,9.281 L4.46365385,9.281 L4.24673077,7.98176923 L13.1071154,7.98176923 C13.2075,7.99792308 13.3067308,7.96561538 13.3909615,7.91484615 C13.4901923,7.84792308 13.5732692,7.73253846 13.5905769,7.61484615 L14.9728846,2.36830769 C15.0225,2.23561538 15.0063462,2.08561538 14.9059615,1.95292308" id="Fill-1"></path>
        </g>
    </g>
</svg>
