<?xml version="1.0" encoding="UTF-8"?>
<svg xmlns="http://www.w3.org/2000/svg" xmlns:xlink="http://www.w3.org/1999/xlink" width="24pt" height="24pt" viewBox="0 0 24 24" version="1.1">
<g id="surface1">
<path style=" stroke:none;fill-rule:nonzero;fill:rgb(17.647059%,10.196078%,29.411765%);fill-opacity:1;" d="M 22.433594 4.675781 L 20.6875 4.675781 C 20.917969 4.308594 21.070312 3.902344 21.113281 3.46875 C 21.253906 2.085938 20.523438 0.84375 19.28125 0.292969 C 18.144531 -0.210938 16.859375 -0.00390625 15.9375 0.832031 L 13.734375 2.832031 C 13.304688 2.359375 12.683594 2.066406 12 2.066406 C 11.3125 2.066406 10.695312 2.363281 10.265625 2.832031 L 8.054688 0.832031 C 7.132812 -0.00390625 5.851562 -0.210938 4.710938 0.292969 C 3.472656 0.84375 2.742188 2.085938 2.882812 3.46875 C 2.925781 3.902344 3.078125 4.308594 3.308594 4.675781 L 1.566406 4.675781 C 0.699219 4.675781 0 5.375 0 6.238281 L 0 8.585938 C 0 9.019531 0.351562 9.371094 0.78125 9.371094 L 23.21875 9.371094 C 23.648438 9.371094 24 9.019531 24 8.585938 L 24 6.238281 C 24 5.375 23.300781 4.675781 22.433594 4.675781 Z M 9.652344 4.414062 L 9.652344 4.675781 L 5.96875 4.675781 C 4.996094 4.675781 4.230469 3.769531 4.476562 2.753906 C 4.582031 2.308594 4.902344 1.929688 5.320312 1.738281 C 5.890625 1.472656 6.527344 1.558594 7.003906 1.992188 L 9.652344 4.390625 C 9.652344 4.398438 9.652344 4.40625 9.652344 4.414062 Z M 19.5625 3.261719 C 19.503906 4.074219 18.765625 4.675781 17.953125 4.675781 L 14.347656 4.675781 L 14.347656 4.414062 C 14.347656 4.40625 14.347656 4.394531 14.347656 4.386719 C 14.945312 3.84375 16.246094 2.664062 16.953125 2.023438 C 17.355469 1.660156 17.914062 1.492188 18.433594 1.644531 C 19.179688 1.867188 19.613281 2.5 19.5625 3.261719 Z M 19.5625 3.261719 "/>
<path style=" stroke:none;fill-rule:nonzero;fill:rgb(17.647059%,10.196078%,29.411765%);fill-opacity:1;" d="M 1.566406 10.933594 L 1.566406 22.414062 C 1.566406 23.277344 2.265625 23.980469 3.128906 23.980469 L 10.433594 23.980469 L 10.433594 10.933594 Z M 1.566406 10.933594 "/>
<path style=" stroke:none;fill-rule:nonzero;fill:rgb(0%,0%,0%);fill-opacity:1;" d="M 13.566406 10.933594 L 13.566406 23.980469 L 20.871094 23.980469 C 21.734375 23.980469 22.433594 23.277344 22.433594 22.414062 L 22.433594 10.933594 Z M 13.566406 10.933594 "/>
<path style=" stroke:none;fill-rule:nonzero;fill:rgb(17.647059%,10.196078%,29.411765%);fill-opacity:1;" d="M 13.566406 10.933594 L 13.566406 23.980469 L 20.871094 23.980469 C 21.734375 23.980469 22.433594 23.277344 22.433594 22.414062 L 22.433594 10.933594 Z M 13.566406 10.933594 "/>
</g>
</svg>
