<?xml version="1.0" encoding="UTF-8"?>
<svg width="87px" height="21px" viewBox="0 0 87 21" version="1.1" xmlns="http://www.w3.org/2000/svg" xmlns:xlink="http://www.w3.org/1999/xlink">
    <!-- Generator: Sketch 52.2 (67145) - http://www.bohemiancoding.com/sketch -->
    <title>Restoin</title>
    <desc>Created with Sketch.</desc>
    <g id="Logos/colors-dark" stroke="none" stroke-width="1" fill="none" fill-rule="evenodd">
        <g id="Logos/colors">
            <path d="M16.6125,20.1715 C12.7155,20.1715 9.7105,17.3635 9.7105,13.2375 L9.7105,13.1875 C9.7105,9.3665 12.4355,6.2285 16.2815,6.2285 C20.5605,6.2285 22.6725,9.7205 22.6725,12.8075 C22.6725,13.6685 22.0105,14.2745 21.2225,14.2745 L12.7915,14.2745 C13.1225,16.4515 14.6765,17.6655 16.6635,17.6655 C17.9625,17.6655 18.9805,17.2115 19.8475,16.5015 C20.0745,16.3245 20.2795,16.2235 20.6355,16.2235 C21.3235,16.2235 21.8595,16.7555 21.8595,17.4635 C21.8595,17.8425 21.6795,18.1725 21.4525,18.4005 C20.2285,19.4885 18.7005,20.1715 16.6125,20.1715 Z M19.6675,12.2515 C19.4655,10.2775 18.2935,8.7335 16.2565,8.7335 C14.3705,8.7335 13.0465,10.1755 12.7665,12.2515 L19.6675,12.2515 Z" id="Fill-1" fill="#2D1A4B"></path>
            <path d="M25.5764,18.5665 C25.2454,18.3885 24.9924,18.0055 24.9924,17.4965 C24.9924,16.8085 25.5254,16.2475 26.2384,16.2475 C26.4934,16.2475 26.7234,16.3245 26.9004,16.4275 C28.1994,17.2925 29.5514,17.7265 30.7724,17.7265 C32.0964,17.7265 32.8624,17.1655 32.8624,16.2745 L32.8624,16.2225 C32.8624,15.1785 31.4344,14.8225 29.8574,14.3385 C27.8684,13.7775 25.6544,12.9625 25.6544,10.3905 L25.6544,10.3395 C25.6544,7.7925 27.7674,6.2385 30.4414,6.2385 C31.8694,6.2385 33.3704,6.6465 34.6694,7.3345 C35.1034,7.5635 35.4094,7.9715 35.4094,8.5055 C35.4094,9.2185 34.8484,9.7545 34.1364,9.7545 C33.8804,9.7545 33.7264,9.7025 33.5244,9.6015 C32.4274,9.0405 31.3084,8.6835 30.3654,8.6835 C29.1674,8.6835 28.4804,9.2445 28.4804,10.0085 L28.4804,10.0595 C28.4804,11.0535 29.9334,11.4595 31.5124,11.9695 C33.4734,12.5805 35.6874,13.4715 35.6874,15.8915 L35.6874,15.9435 C35.6874,18.7695 33.4994,20.1715 30.6964,20.1715 C28.9904,20.1715 27.1304,19.6355 25.5764,18.5665" id="Fill-3" fill="#2D1A4B"></path>
            <path d="M39.4836,16.2238 L39.4836,8.8778 L38.9736,8.8778 C38.2356,8.8778 37.6486,8.2918 37.6486,7.5538 C37.6486,6.8148 38.2356,6.2288 38.9736,6.2288 L39.4836,6.2288 L39.4836,4.6108 C39.4836,3.7708 40.1706,3.0838 41.0376,3.0838 C41.8766,3.0838 42.5646,3.7708 42.5646,4.6108 L42.5646,6.2288 L44.9856,6.2288 C45.7236,6.2288 46.3346,6.8148 46.3346,7.5538 C46.3346,8.2918 45.7236,8.8778 44.9856,8.8778 L42.5646,8.8778 L42.5646,15.7398 C42.5646,16.9378 43.1756,17.4218 44.2196,17.4218 C44.5786,17.4218 44.8816,17.3448 44.9856,17.3448 C45.6726,17.3448 46.2846,17.9048 46.2846,18.6188 C46.2846,19.1778 45.9026,19.6368 45.4686,19.8148 C44.8056,20.0448 44.1696,20.1718 43.3556,20.1718 C41.0886,20.1718 39.4836,19.1778 39.4836,16.2238" id="Fill-5" fill="#2D1A4B"></path>
            <path d="M48.4807,13.2496 L48.4807,13.1996 C48.4807,9.3706 51.5227,6.2016 55.6297,6.2016 C59.7357,6.2016 62.7547,9.3206 62.7547,13.1486 L62.7547,13.1996 C62.7547,17.0016 59.7107,20.1716 55.5797,20.1716 C51.4967,20.1716 48.4807,17.0536 48.4807,13.2496 M59.6857,13.2496 L59.6857,13.1996 C59.6857,10.8406 57.9877,8.8886 55.5797,8.8886 C53.1197,8.8886 51.5477,10.8156 51.5477,13.1486 L51.5477,13.1996 C51.5477,15.5316 53.2457,17.4836 55.6297,17.4836 C58.1137,17.4836 59.6857,15.5566 59.6857,13.2496" id="Fill-8" fill="#2D1A4B"></path>
            <path d="M74.0612,7.7618 C74.0612,6.8958 74.7232,6.2088 75.5902,6.2088 C76.4542,6.2088 77.1422,6.8958 77.1422,7.7618 L77.1422,8.6588 C78.0092,7.4108 79.2572,6.3158 81.3452,6.3158 C84.3772,6.3158 86.1342,8.3528 86.1342,11.4598 L86.1342,18.6418 C86.1342,19.5088 85.4712,20.1708 84.6052,20.1708 C83.7402,20.1708 83.0532,19.5088 83.0532,18.6418 L83.0532,12.4028 C83.0532,10.3138 82.0072,9.1168 80.1742,9.1168 C78.3902,9.1168 77.1422,10.3658 77.1422,12.4528 L77.1422,18.6418 C77.1422,19.5088 76.4542,20.1708 75.5902,20.1708 C74.7482,20.1708 74.0612,19.5088 74.0612,18.6418 L74.0612,7.7618 Z" id="Fill-10" fill="#E61B5D"></path>
            <path d="M0.0002,7.8317 C0.0002,6.9397 0.6822,6.2317 1.5752,6.2317 C2.4662,6.2317 3.1742,6.9397 3.1742,7.8317 L3.1742,9.2497 C3.9102,7.5167 5.2752,6.2047 6.6652,6.2047 C7.6622,6.2047 8.2382,6.8607 8.2382,7.7797 C8.2382,8.6197 7.6882,9.1697 6.9802,9.3017 C4.7232,9.6947 3.1742,11.4257 3.1742,14.7067 L3.1742,18.5957 C3.1742,19.4627 2.4662,20.1717 1.5752,20.1717 C0.7082,20.1717 0.0002,19.4887 0.0002,18.5957 L0.0002,7.8317 Z" id="Fill-13" fill="#2D1A4B"></path>
            <path d="M68.1867,6.212 C67.3417,6.212 66.6567,6.897 66.6567,7.742 L66.6567,18.641 C66.6567,19.486 67.3417,20.171 68.1867,20.171 C69.0317,20.171 69.7167,19.486 69.7167,18.641 L69.7167,7.742 C69.7167,6.897 69.0317,6.212 68.1867,6.212" id="Fill-15" fill="#E61B5D"></path>
            <path d="M69.7165,1.5421 C69.7165,2.3941 69.0265,3.0841 68.1745,3.0841 C67.3235,3.0841 66.6325,2.3941 66.6325,1.5421 C66.6325,0.6901 67.3235,0.0001 68.1745,0.0001 C69.0265,0.0001 69.7165,0.6901 69.7165,1.5421" id="Fill-17" fill="#E61B5D"></path>
        </g>
    </g>
</svg>
