<?xml version="1.0" encoding="UTF-8"?>
<svg width="83px" height="81px" viewBox="0 0 83 81" version="1.1" xmlns="http://www.w3.org/2000/svg" xmlns:xlink="http://www.w3.org/1999/xlink">
    <!-- Generator: Sketch 52.2 (67145) - http://www.bohemiancoding.com/sketch -->
    <title>Restoin</title>
    <desc>Created with Sketch.</desc>
    <g id="Logos/image" stroke="none" stroke-width="1" fill="none" fill-rule="evenodd">
        <g>
            <path d="M73.2535,0.0606 C68.3905,0.0606 64.4465,4.0036 64.4465,8.8666 L64.4465,71.5966 C64.4465,76.4596 68.3905,80.4036 73.2535,80.4036 C78.1165,80.4036 82.0605,76.4596 82.0605,71.5966 L82.0605,8.8666 C82.0605,4.0036 78.1165,0.0606 73.2535,0.0606" id="Fill-1" fill="#E51C5C"></path>
            <path d="M0.984,0 C0.643,0 0.338,0.088 0,0.096 L0,15.533 C0.24,15.526 0.451,15.464 0.693,15.464 C14.55,15.464 24.324,26.7 24.324,40.274 L24.324,40.564 C24.324,53.842 15.275,64.933 0.984,64.933 C0.642,64.933 0.336,64.845 0,64.831 L0,80.337 C0.238,80.341 0.454,80.403 0.693,80.403 C24.47,80.403 41.988,62.16 41.988,40.274 L41.988,39.984 C41.988,17.947 24.615,0 0.984,0" id="Fill-3" fill="#FEFEFE"></path>
        </g>
    </g>
</svg>
