<?xml version="1.0" encoding="UTF-8"?>
<svg id="logoPayPal" viewBox="0 0 48 29" width="100%" height="100%" version="1.1" xmlns="http://www.w3.org/2000/svg" xmlns:xlink="http://www.w3.org/1999/xlink">
  <title>PayPal</title>
  <path d="M46 29H2c-1.1 0-2-.87-2-1.932V1.934C0 .87.9 0 2 0h44c1.1 0 2 .87 2 1.934v25.134C48 28.13 47.1 29 46 29z" fill-opacity="0" style="fill: #FFF"></path>
  <path d="M31.216 16.4c.394-.7.69-1.5.886-2.4.196-.8.196-1.6.1-2.2-.1-.7-.396-1.2-.79-1.7-.195-.3-.59-.5-.885-.7.1-.8.1-1.5 0-2.1-.1-.6-.394-1.1-.886-1.6-.885-1-2.56-1.6-4.922-1.6h-6.4c-.492 0-.787.3-.886.8l-2.658 17.2c0 .2 0 .3.1.4.097.1.294.2.393.2h4.036l-.295 1.8c0 .1 0 .3.1.4.098.1.195.2.393.2h3.35c.393 0 .688-.3.786-.7v-.2l.59-4.1v-.2c.1-.4.395-.7.788-.7h.59c1.675 0 3.152-.4 4.137-1.1.59-.5 1.083-1 1.478-1.7h-.002z" style="fill: #263B80"></path>
  <path d="M21.364 9.4c0-.3.196-.5.492-.6.098-.1.196-.1.394-.1h5.02c.592 0 1.183 0 1.675.1.1 0 .295.1.394.1.098 0 .294.1.393.1.1 0 .1 0 .197.102.295.1.492.2.69.3.295-1.6 0-2.7-.887-3.8-.985-1.1-2.658-1.6-4.923-1.6h-6.4c-.49 0-.885.3-.885.8l-2.758 17.3c-.098.3.197.6.59.6h3.94l.985-6.4 1.083-6.9z" style="fill: #263B80"></path>
  <path d="M30.523 9.4c0 .1 0 .3-.098.4-.887 4.4-3.742 5.9-7.484 5.9h-1.87c-.492 0-.787.3-.886.8l-.985 6.2-.296 1.8c0 .3.196.6.492.6h3.348c.394 0 .69-.3.787-.7v-.2l.592-4.1v-.2c.1-.4.394-.7.787-.7h.69c3.248 0 5.808-1.3 6.497-5.2.296-1.6.197-3-.69-3.9-.196-.3-.49-.5-.885-.7z" style="fill: #159BD7"></path>
  <path d="M29.635 9c-.098 0-.295-.1-.394-.1-.098 0-.294-.1-.393-.1-.492-.102-1.083-.102-1.673-.102h-5.022c-.1 0-.197 0-.394.1-.198.1-.394.3-.492.6l-1.083 6.9v.2c.1-.5.492-.8.886-.8h1.87c3.742 0 6.598-1.5 7.484-5.9 0-.1 0-.3.098-.4-.196-.1-.492-.2-.69-.3 0-.1-.098-.1-.196-.1z" style="fill: #232C65"></path>
</svg>
