<?xml version="1.0" encoding="UTF-8"?>
<svg width="18px" height="22px" viewBox="0 0 18 22" version="1.1" xmlns="http://www.w3.org/2000/svg" xmlns:xlink="http://www.w3.org/1999/xlink">
    <!-- Generator: Sketch 52.2 (67145) - http://www.bohemiancoding.com/sketch -->
    <title>Path</title>
    <desc>Created with Sketch.</desc>
    <g id="Pages-templates-et-404" stroke="none" stroke-width="1" fill="none" fill-rule="evenodd">
        <g id="Page-Contact" transform="translate(-278.000000, -304.000000)" fill="#2D1A4B">
            <g id="Content" transform="translate(276.000000, 245.000000)">
                <g id="Group" transform="translate(0.000000, 58.000000)">
                    <path d="M3.71000495,2.72248732 C5.14868827,1.61393455 6.39118751,1.80956151 6.97973978,3.11374124 C8.15684432,5.46126474 9.00697538,6.63502649 8.15684432,7.5479523 C6.5873716,8.59129608 5.47566176,9.11296797 6.06421403,10.2215207 C7.24131857,13.0255071 9.53013295,15.4382396 12.2767102,16.8728373 C13.3230254,17.5249272 13.9115776,16.4163744 15.0886822,14.9817767 C16.0696026,14.1992689 17.1813125,15.0469857 19.4701268,16.4163744 C20.7126261,17.1336733 20.7780208,18.307435 19.6009162,19.6768237 C12.7344731,27.3714841 -4.46433214,9.04775898 3.71000495,2.72248732 Z" id="Path" transform="translate(10.998361, 11.766095) rotate(10.000000) translate(-10.998361, -11.766095) "></path>
                </g>
            </g>
        </g>
    </g>
</svg>